<?xml version="1.0" encoding="UTF-8" standalone="no"?>
<!DOCTYPE svg PUBLIC "-//W3C//DTD SVG 1.1//EN" "http://www.w3.org/Graphics/SVG/1.1/DTD/svg11.dtd">
<svg width="100%" height="100%" viewBox="0 0 931 161" version="1.1" xmlns="http://www.w3.org/2000/svg" xmlns:xlink="http://www.w3.org/1999/xlink" xml:space="preserve" xmlns:serif="http://www.serif.com/" style="fill-rule:evenodd;clip-rule:evenodd;stroke-linejoin:round;stroke-miterlimit:2;">
    <g transform="matrix(1,0,0,1,-134,-320)">
        <path d="M142.702,358.655C139.679,360.177 138.462,362.621 138.462,365.958L138.462,434.042C138.462,437.379 139.679,439.519 142.702,441.345L200.154,474.068C202.823,475.396 205.966,475.396 208.634,474.068L266.087,441.345C269.13,439.519 270.327,437.379 270.327,434.042L270.327,365.958C270.327,362.013 268.491,359.872 266.087,358.655L208.634,325.932C205.966,324.604 202.823,324.604 200.154,325.932L142.702,358.655Z" style="fill:rgb(20,191,150);fill-rule:nonzero;"/>
    </g>
    <g transform="matrix(1,0,0,1,-134,-320.109)">
        <path d="M254.838,385.847C227.572,385.989 205.5,408.883 205.5,437.122L205.5,438.319L203.38,438.319L203.38,437.122C203.38,408.883 181.267,385.989 153.951,385.847C153.767,387.64 153.676,389.441 153.677,391.243C153.677,413.326 167.198,432.152 186.136,439.374C191.976,441.552 198.161,442.662 204.394,442.65C210.626,442.645 216.808,441.536 222.653,439.374C241.58,432.152 255.112,413.326 255.112,391.243C255.113,389.441 255.021,387.64 254.838,385.847Z" style="fill:white;fill-rule:nonzero;"/>
    </g>
    <g transform="matrix(1,0,0,1,-134,-320)">
        <path d="M306.915,359.669C306.915,359.655 306.915,359.642 306.915,359.628C306.915,358.042 308.22,356.737 309.805,356.737C309.833,356.737 309.86,356.737 309.887,356.738L320.619,356.738C322.221,356.754 323.534,358.067 323.55,359.669L323.55,392.605L354.285,357.955C354.824,357.207 355.686,356.755 356.608,356.738L368.78,356.738C368.811,356.737 368.842,356.736 368.874,356.736C370.298,356.736 371.47,357.908 371.47,359.333C371.47,360.003 371.211,360.647 370.748,361.13L338.877,396.998L373.03,437.856C373.371,438.317 373.555,438.875 373.555,439.448C373.555,440.917 372.347,442.126 370.878,442.126C370.865,442.126 370.852,442.126 370.839,442.126L357.561,442.126C356.739,442.201 355.926,441.885 355.37,441.274L323.51,401.998L323.51,439.195C323.493,440.796 322.18,442.11 320.578,442.126L309.887,442.126C309.873,442.126 309.86,442.126 309.846,442.126C308.26,442.126 306.955,440.821 306.955,439.235C306.955,439.222 306.955,439.208 306.955,439.195L306.915,359.669ZM381.906,359.426C381.999,357.989 383.157,356.831 384.594,356.738L394.474,356.738C395.924,356.795 397.1,357.975 397.152,359.426L397.152,389.309C399.961,386.864 404.84,384.551 411.545,384.551C429.479,384.551 434.358,396.998 434.358,411.148L434.358,439.448C434.306,440.902 433.124,442.084 431.67,442.136L421.79,442.136C420.324,442.12 419.123,440.915 419.112,439.448L419.112,411.046C419.112,403.246 415.572,398.489 408.867,398.489C402.162,398.489 398.612,402.637 397.152,408.368L397.152,439.448C397.152,441.041 396.421,442.136 394.23,442.136L384.594,442.136C383.14,442.084 381.958,440.902 381.906,439.448L381.906,359.426ZM465.367,406.512C469.045,406.554 472.702,407.086 476.241,408.095C476.484,400.893 474.415,397.484 468.44,397.484C463.092,397.559 457.77,398.24 452.576,399.513C450.75,400.122 449.654,398.783 449.411,397.079L448.173,390.759C448.062,390.467 448.004,390.157 448.004,389.845C448.004,388.654 448.837,387.613 449.999,387.351C456.263,385.53 462.749,384.584 469.272,384.541C486.84,384.541 490.492,393.67 490.492,409.058L490.492,439.448C490.481,440.915 489.281,442.12 487.814,442.136L483.666,442.136C482.651,442.136 481.961,441.771 481.221,440.189L479.639,436.405C474.931,441.041 468.555,443.6 461.948,443.506C450.73,443.506 442.919,436.314 442.919,424.233C442.919,414.191 451.095,406.512 465.367,406.512ZM465.732,432.125C470.733,432.125 475.125,428.219 475.875,426.15L475.875,417.853C473.241,416.753 470.422,416.164 467.568,416.118C461.096,416.118 457.556,419.161 457.556,424.162C457.556,428.95 460.488,432.125 465.732,432.125ZM503.182,388.457C503.187,386.988 504.391,385.78 505.86,385.769L510.495,385.769C511.588,385.664 512.596,386.408 512.818,387.483L514.847,392.727C519.328,387.35 526.048,384.33 533.044,384.551C550.978,384.551 555.614,396.622 555.614,410.286L555.614,439.448C555.557,440.9 554.378,442.079 552.925,442.136L543.046,442.136C541.579,442.12 540.379,440.915 540.368,439.448L540.368,410.286C540.368,402.972 537.436,398.458 530.61,398.458C525.057,398.321 520.057,401.929 518.438,407.242L518.438,439.448C518.438,441.528 517.585,442.136 514.897,442.136L505.87,442.136C504.419,442.079 503.243,440.899 503.192,439.448L503.182,388.457ZM584.462,438.951L622.398,356.86C622.742,356.046 623.544,355.517 624.427,355.521L625.654,355.521C626.55,355.468 627.38,356.015 627.683,356.86L665.214,438.951C665.386,439.267 665.476,439.621 665.476,439.98C665.476,441.16 664.506,442.131 663.326,442.131C663.279,442.131 663.232,442.129 663.185,442.126L652.646,442.126C650.821,442.126 649.968,441.396 649.116,439.681L643.132,426.495L606.666,426.495L600.691,439.681C600.161,441.169 598.73,442.157 597.151,442.126L586.541,442.126C586.483,442.131 586.424,442.133 586.365,442.133C585.18,442.133 584.205,441.158 584.205,439.973C584.205,439.616 584.293,439.265 584.462,438.951ZM637.157,412.974L624.985,386.134L624.62,386.134L612.64,412.974L637.157,412.974ZM696.73,384.551C705.514,384.551 712.341,388.335 717.707,394.066C718.924,395.283 718.315,396.876 717.098,398.123L711.976,403.733C710.759,405.072 709.42,404.463 708.314,403.368C705.636,400.801 702.339,398.489 697.095,398.489C688.311,398.489 682.215,405.315 682.215,413.978C682.215,422.64 688.189,429.589 696.974,429.589C703.191,429.589 706.488,426.18 708.923,423.371C709.828,422.361 711.37,422.202 712.463,423.005L717.95,427.641C719.299,428.858 719.908,430.197 718.965,431.698C714.207,439.134 706.65,443.526 696.649,443.526C680.176,443.526 666.888,430.968 666.888,414.008C666.847,397.363 680.014,384.551 696.73,384.551ZM748.918,406.512C752.59,406.556 756.24,407.088 759.772,408.095C760.015,400.893 757.946,397.484 751.972,397.484C746.624,397.559 741.302,398.24 736.107,399.513C734.281,400.122 733.186,398.783 732.942,397.079L731.715,390.759C731.606,390.47 731.55,390.163 731.55,389.854C731.55,388.659 732.385,387.614 733.551,387.351C739.815,385.53 746.301,384.584 752.824,384.541C770.392,384.541 774.044,393.67 774.044,409.058L774.044,439.448C774.033,440.915 772.833,442.12 771.366,442.136L767.217,442.136C766.203,442.136 765.503,441.771 764.773,440.189L763.19,436.405C758.482,441.041 752.107,443.6 745.5,443.506C734.281,443.506 726.471,436.314 726.471,424.233C726.471,414.191 734.647,406.512 748.918,406.512ZM749.284,432.125C754.284,432.125 758.676,428.219 759.427,426.15L759.427,417.853C756.796,416.755 753.98,416.166 751.13,416.118C744.668,416.118 741.128,419.161 741.128,424.162C741.108,428.95 744.029,432.125 749.284,432.125ZM811.544,384.551C816.155,384.574 820.73,385.355 825.086,386.864L825.086,359.477C825.179,358.039 826.337,356.882 827.774,356.789L837.654,356.789C839.104,356.846 840.28,358.026 840.332,359.477L840.332,439.448C840.321,440.915 839.12,442.12 837.654,442.136L833.14,442.136C831.791,442.136 830.939,441.041 830.452,439.448L828.991,435.056C824.374,440.413 817.643,443.5 810.571,443.506C795.203,443.506 783.589,431.029 783.589,413.947C783.589,397.484 794.747,384.551 811.544,384.551ZM825.086,401.633C821.552,399.515 817.5,398.416 813.38,398.458C804.109,398.458 799.352,406.015 799.352,413.947C799.352,421.88 803.866,429.558 812.64,429.558C819.964,429.558 823.869,424.923 825.086,421.758L825.086,401.633ZM878.512,384.551C893.149,384.551 904.368,395.405 904.368,410.651C904.368,411.513 904.246,413.46 904.124,414.312C903.979,415.701 902.84,416.793 901.446,416.879L865.336,416.879C865.457,423.827 871.188,429.923 879.364,429.923C883.75,430.002 888.028,428.537 891.445,425.785C892.784,424.679 894.245,424.557 895.097,425.785L899.854,432.125C900.335,432.571 900.609,433.2 900.609,433.857C900.609,434.623 900.236,435.344 899.61,435.786C893.782,440.808 886.327,443.551 878.634,443.506C861.795,443.506 850.09,430.086 850.09,413.988C850.09,398.093 861.795,384.551 878.512,384.551ZM889,406.867C888.757,401.369 884.365,397.109 878.147,397.109C871.31,397.109 866.928,401.248 866.188,406.867L889,406.867ZM913.426,388.457C913.431,386.988 914.635,385.78 916.104,385.769L920.496,385.769C921.551,385.662 922.538,386.339 922.819,387.361L924.848,392.727C928.995,387.456 935.385,384.426 942.091,384.551C950.267,384.551 954.264,387.483 958.92,393.092C961.364,390.526 966.974,384.551 977.097,384.551C995.152,384.551 999.412,396.014 999.412,410.651L999.412,439.448C999.386,440.932 998.158,442.137 996.674,442.137C996.65,442.137 996.627,442.137 996.603,442.136L986.845,442.136C985.378,442.12 984.178,440.915 984.167,439.448L984.167,410.286C984.167,402.972 981.479,398.458 974.409,398.458C966.233,398.458 963.91,404.311 963.91,404.311C963.91,404.311 964.154,407.121 964.154,409.677L964.154,439.448C964.102,440.899 962.926,442.079 961.476,442.136L951.474,442.136C951.454,442.137 951.433,442.137 951.413,442.137C949.971,442.137 948.785,440.951 948.785,439.51C948.785,439.489 948.786,439.469 948.786,439.448L948.786,410.286C948.786,402.972 946.758,398.458 939.515,398.458C932.567,398.458 930,403.337 928.661,407.242L928.661,439.448C928.61,440.899 927.434,442.079 925.984,442.136L916.094,442.136C914.647,442.074 913.477,440.895 913.426,439.448L913.426,388.457ZM1005.25,389.43C1004.51,387.483 1005.49,385.769 1007.68,385.769L1019.39,385.769C1020.45,385.667 1021.43,386.343 1021.71,387.361L1031.85,421.028L1032.11,421.028L1044.89,387.361C1045.74,385.89 1046.71,385.769 1048.43,385.769L1058.79,385.769C1058.88,385.759 1058.97,385.754 1059.06,385.754C1060.42,385.754 1061.54,386.871 1061.54,388.229C1061.54,388.649 1061.43,389.063 1061.23,389.43L1028.05,469.453C1027.62,470.431 1026.67,471.089 1025.6,471.157L1013.91,471.157C1013.83,471.163 1013.76,471.167 1013.68,471.167C1012.29,471.167 1011.14,470.017 1011.14,468.621C1011.14,468.184 1011.25,467.754 1011.46,467.373L1022.8,438.829L1005.25,389.43Z" style="fill:rgb(10,42,102);fill-rule:nonzero;"/>
    </g>
    <g transform="matrix(1,0,0,1,-7.66667,-10.3333)">
        <circle cx="77.943" cy="58.681" r="21.75" style="fill:white;"/>
    </g>
</svg>
