<?xml version="1.0" encoding="UTF-8" standalone="no"?><!DOCTYPE svg PUBLIC "-//W3C//DTD SVG 1.1//EN" "http://www.w3.org/Graphics/SVG/1.1/DTD/svg11.dtd"><svg width="100%" height="100%" viewBox="0 0 190 190" version="1.1" xmlns="http://www.w3.org/2000/svg" xmlns:xlink="http://www.w3.org/1999/xlink" xml:space="preserve" xmlns:serif="http://www.serif.com/" style="fill-rule:evenodd;clip-rule:evenodd;stroke-linejoin:round;stroke-miterlimit:2;"><path d="M94.88,0c52.366,0 94.881,42.514 94.881,94.88c-0,52.366 -42.515,94.881 -94.881,94.881c-52.366,-0 -94.88,-42.515 -94.88,-94.881c0,-52.366 42.514,-94.88 94.88,-94.88Zm-37.854,120.989l38.342,-38.342c0,-0 37.308,38.282 37.308,38.282c2.509,2.574 6.635,2.628 9.21,0.119c2.574,-2.509 2.627,-6.635 0.118,-9.209l-41.912,-43.008c-1.216,-1.247 -2.88,-1.955 -4.622,-1.967c-1.742,-0.011 -3.416,0.676 -4.647,1.908l-43.007,43.007c-2.542,2.542 -2.542,6.669 -0,9.21c2.541,2.542 6.668,2.542 9.21,0Z" style="fill:#6996ad;"/></svg>